<!-- icon666.com - MILLIONS vector ICONS FREE --><svg version="1.1" id="Capa_1" xmlns="http://www.w3.org/2000/svg" xmlns:xlink="http://www.w3.org/1999/xlink" x="0px" y="0px" viewBox="0 0 258.37 258.37" style="enable-background:new 0 0 258.37 258.37;" xml:space="preserve"><g><path style="fill:#000002;" d="M240.87,24.001H17.5c-9.649,0-17.5,7.851-17.5,17.5v175.367c0,9.649,7.851,17.5,17.5,17.5h223.37 c9.649,0,17.5-7.851,17.5-17.5V41.501C258.37,31.852,250.519,24.001,240.87,24.001z M78.85,197.676v21.692H43.515v-21.692H78.85z M88.85,197.676h35.335v21.692H88.85V197.676z M134.185,197.676h35.335v21.692h-35.335V197.676z M179.52,197.676h35.335v21.692 H179.52V197.676z M15,182.676V75.002h228.37v107.674H15z M179.52,60.002V39.001h35.335v21.001H179.52z M169.52,60.002h-35.335 V39.001h35.335V60.002z M124.185,60.002H88.85V39.001h35.335V60.002z M78.85,60.002H43.515V39.001H78.85V60.002z M243.37,41.501 v18.501h-18.515V39.001h16.015C242.225,39.001,243.37,40.146,243.37,41.501z M17.5,39.001h16.015v21.001H15V41.501 C15,40.146,16.145,39.001,17.5,39.001z M15,216.869v-19.192h18.515v21.692H17.5C16.145,219.369,15,218.224,15,216.869z M240.87,219.369h-16.015v-21.692h18.515v19.192C243.37,218.224,242.225,219.369,240.87,219.369z"></path><path style="fill:#000002;" d="M176.738,120.168l-34.341-22.484c-1.921-1.258-4.033-1.923-6.107-1.923 c-5.522,0-9.686,4.496-9.686,10.458v45.93c0,5.962,4.163,10.458,9.686,10.458c2.074,0,4.186-0.665,6.107-1.923l34.344-22.489 c3.251-2.13,5.116-5.415,5.115-9.014C181.855,125.582,179.99,122.297,176.738,120.168z M141.604,143.273v-28.178l21.518,14.088 L141.604,143.273z"></path><path style="fill:#000002;" d="M101.567,97.184c-4.142,0-7.5,3.358-7.5,7.5v49.003c0,4.142,3.358,7.5,7.5,7.5 c4.142,0,7.5-3.358,7.5-7.5v-49.003C109.067,100.542,105.709,97.184,101.567,97.184z"></path></g></svg>