<!-- icon666.com - MILLIONS vector ICONS FREE --><svg version="1.1" id="Capa_1" xmlns="http://www.w3.org/2000/svg" xmlns:xlink="http://www.w3.org/1999/xlink" x="0px" y="0px" viewBox="0 0 512 512" style="enable-background:new 0 0 512 512;" xml:space="preserve"><g><g><path d="M317,151H75c-8.284,0-15,6.716-15,15v210c0,8.284,6.716,15,15,15h242c8.284,0,15-6.716,15-15V166 C332,157.716,325.284,151,317,151z M302,361H90V181h212V361z"></path></g></g><g><g><path d="M437,91H231.932l64.733-65.452c5.825-5.89,5.773-15.387-0.117-21.213c-5.892-5.827-15.389-5.772-21.213,0.117L196,84.669 L116.665,4.452c-5.824-5.89-15.321-5.943-21.213-0.117c-5.891,5.825-5.942,15.323-0.117,21.213L160.068,91H75 c-41.355,0-75,33.645-75,75v210c0,32.297,20.52,59.89,49.207,70.429C36.794,460.449,30,478.259,30,497c0,8.284,6.716,15,15,15h422 c8.284,0,15-6.716,15-15c0-18.741-6.794-36.551-19.207-50.571C491.48,435.89,512,408.297,512,376V166 C512,124.645,478.355,91,437,91z M62.558,482c6.241-17.833,23.159-31,42.442-31h302c19.283,0,36.201,13.167,42.442,31H62.558z M482,376c0,24.813-20.187,45-45,45c-18.289,0-350.195,0-362,0c-24.813,0-45-20.187-45-45V166c0-24.813,20.187-45,45-45h362 c24.813,0,45,20.187,45,45V376z"></path></g></g><g><g><path d="M407,151c-24.813,0-45,20.187-45,45s20.187,45,45,45s45-20.187,45-45S431.813,151,407,151z M407,211 c-8.271,0-15-6.729-15-15s6.729-15,15-15s15,6.729,15,15S415.271,211,407,211z"></path></g></g><g><g><path d="M437,271h-60c-8.284,0-15,6.716-15,15s6.716,15,15,15h60c8.284,0,15-6.716,15-15S445.284,271,437,271z"></path></g></g><g><g><path d="M437,331h-60c-8.284,0-15,6.716-15,15s6.716,15,15,15h60c8.284,0,15-6.716,15-15S445.284,331,437,331z"></path></g></g></svg>